<?xml version="1.0" standalone="no"?><!-- Generator: Gravit.io --><svg xmlns="http://www.w3.org/2000/svg" xmlns:xlink="http://www.w3.org/1999/xlink" style="isolation:isolate" viewBox="0 0 400 250" width="400" height="250"><defs><clipPath id="_clipPath_iMcO9LmFpPPDMvwlQ4b9tsSeF6krn8nO"><rect width="400" height="250"/></clipPath></defs><g clip-path="url(#_clipPath_iMcO9LmFpPPDMvwlQ4b9tsSeF6krn8nO)"><path d="M 207.167 195.478 L 207.167 100.174 C 207.167 96.348 210.273 93.242 214.098 93.242 L 231.001 93.242 C 234.826 93.242 237.932 96.348 237.932 100.174 L 237.932 195.478 C 237.932 199.303 234.826 202.409 231.001 202.409 L 214.098 202.409 C 210.273 202.409 207.167 199.303 207.167 195.478 Z" style="stroke:none;fill:#000000;stroke-miterlimit:10;"/><path d=" M 128.765 145.841 C 128.765 115.716 153.223 91.258 183.349 91.258 C 213.474 91.258 237.932 115.716 237.932 145.841 C 237.932 175.966 213.474 200.424 183.349 200.424 C 153.223 200.424 128.765 175.966 128.765 145.841 Z  M 158.91 145.841 C 158.91 132.353 169.861 121.402 183.349 121.402 C 196.837 121.402 207.787 132.353 207.787 145.841 C 207.787 159.329 196.837 170.279 183.349 170.279 C 169.861 170.279 158.91 159.329 158.91 145.841 Z " fill-rule="evenodd" fill="rgb(0,0,0)"/><path d="M 249.841 195.794 L 249.841 54.206 C 249.841 50.555 252.805 47.591 256.456 47.591 L 273.992 47.591 C 277.642 47.591 280.606 50.555 280.606 54.206 L 280.606 195.794 C 280.606 199.445 277.642 202.409 273.992 202.409 L 256.456 202.409 C 252.805 202.409 249.841 199.445 249.841 195.794 Z" style="stroke:none;fill:#000000;stroke-miterlimit:10;"/><path d="M 88.076 195.794 L 88.076 54.206 C 88.076 50.555 91.04 47.591 94.691 47.591 L 112.227 47.591 C 115.877 47.591 118.841 50.555 118.841 54.206 L 118.841 195.794 C 118.841 199.445 115.877 202.409 112.227 202.409 L 94.691 202.409 C 91.04 202.409 88.076 199.445 88.076 195.794 Z" style="stroke:none;fill:#000000;stroke-miterlimit:10;"/><path d="M 45.989 47.591 L 160.928 47.591 C 164.234 47.591 166.917 50.275 166.917 53.58 L 166.917 72.367 C 166.917 75.673 164.234 78.356 160.928 78.356 L 45.989 78.356 C 42.684 78.356 40 75.673 40 72.367 L 40 53.58 C 40 50.275 42.684 47.591 45.989 47.591 Z" style="stroke:none;fill:#000000;stroke-miterlimit:10;"/><path d=" M 280.978 147.826 C 280.978 134.338 291.929 123.387 305.417 123.387 C 318.905 123.387 329.855 134.338 329.855 147.826 C 329.855 161.314 318.905 172.264 305.417 172.264 C 291.929 172.264 280.978 161.314 280.978 147.826 Z " fill-rule="evenodd" fill="rgb(0,0,0)"/><path d=" M 250.833 147.826 C 250.833 117.7 275.291 93.242 305.417 93.242 C 335.542 93.242 360 117.7 360 147.826 C 360 177.951 335.542 202.409 305.417 202.409 C 275.291 202.409 250.833 177.951 250.833 147.826 Z " fill="rgb(0,0,0)"/><path d=" M 297.762 163.648 L 316.16 163.648 C 317.728 163.648 319.007 162.369 319.007 160.801 L 319.007 135.844 C 319.007 135.448 318.683 135.123 318.287 135.123 L 295.654 135.123 C 295.258 135.123 294.933 135.448 294.933 135.844 L 294.933 160.819 C 294.933 162.369 296.195 163.648 297.762 163.648 L 297.762 163.648 Z  M 314.052 143.214 C 313.547 143.214 313.151 142.818 313.151 142.313 C 313.151 141.808 313.547 141.412 314.052 141.412 C 314.557 141.412 314.953 141.808 314.953 142.313 C 314.953 142.818 314.557 143.214 314.052 143.214 Z  M 314.953 149.377 C 314.953 149.881 314.557 150.278 314.052 150.278 C 313.547 150.278 313.151 149.881 313.151 149.377 C 313.151 148.872 313.547 148.476 314.052 148.476 C 314.557 148.476 314.953 148.89 314.953 149.377 Z  M 309.673 144.115 C 309.673 144.619 309.277 145.016 308.772 145.016 C 308.268 145.016 307.871 144.619 307.871 144.115 C 307.871 143.61 308.268 143.214 308.772 143.214 C 309.277 143.214 309.673 143.61 309.673 144.115 Z  M 303.493 141.412 C 302.952 141.412 302.501 140.962 302.501 140.421 C 302.501 139.88 302.952 139.43 303.493 139.43 C 304.033 139.43 304.484 139.88 304.484 140.421 C 304.484 140.962 304.051 141.412 303.493 141.412 Z  M 304.321 152.242 C 304.321 152.746 303.925 153.143 303.42 153.143 C 302.916 153.143 302.519 152.746 302.519 152.242 C 302.519 151.737 302.916 151.341 303.42 151.341 C 303.907 151.341 304.321 151.755 304.321 152.242 Z  M 300.231 143.214 C 300.231 143.719 299.835 144.115 299.33 144.115 C 298.825 144.115 298.429 143.719 298.429 143.214 C 298.429 142.709 298.825 142.313 299.33 142.313 C 299.817 142.313 300.231 142.709 300.231 143.214 Z  M 329.855 127.771 C 329.855 122.672 325.711 118.527 320.611 118.527 C 315.854 118.527 311.926 122.149 311.421 126.78 L 298.483 126.78 L 296.933 117.194 C 296.807 116.437 296.357 115.77 295.708 115.356 C 295.059 114.941 294.248 114.851 293.528 115.067 L 285.473 117.554 L 286.05 119.446 L 294.104 116.959 C 294.357 116.887 294.555 116.977 294.663 117.032 C 294.753 117.086 294.933 117.23 294.969 117.5 L 296.483 126.762 L 292.338 126.762 L 292.338 168.658 C 292.338 170.478 293.816 171.955 295.636 171.955 L 318.341 171.955 C 320.161 171.955 321.638 170.478 321.638 168.658 L 321.638 136.943 C 326.233 136.475 329.855 132.546 329.855 127.771 L 329.855 127.771 Z  M 321.062 120.347 C 322.071 120.401 323.026 120.671 323.891 121.104 L 321.062 126.077 L 321.062 120.347 L 321.062 120.347 Z  M 320.161 126.294 L 316.845 121.374 C 317.836 120.798 318.953 120.437 320.161 120.365 L 320.161 126.294 Z  M 328.053 128.096 C 328.017 129.083 327.777 130.052 327.35 130.943 L 322.323 128.204 L 328.053 128.096 Z  M 322.305 127.303 L 327.224 124.384 C 327.675 125.23 327.945 126.185 328.035 127.195 L 322.305 127.303 Z  M 326.774 123.591 L 321.854 126.51 L 324.684 121.536 C 325.494 122.095 326.215 122.78 326.774 123.591 Z  M 316.106 121.879 L 319.296 126.618 L 314.178 124.077 C 314.665 123.212 315.313 122.473 316.106 121.879 L 316.106 121.879 Z  M 313.764 124.87 L 317.602 126.78 L 313.241 126.78 C 313.331 126.113 313.511 125.483 313.764 124.87 Z  M 319.62 168.694 C 319.62 169.414 319.025 170.009 318.305 170.009 L 295.6 170.009 C 294.879 170.009 294.284 169.414 294.284 168.694 L 294.284 128.762 L 319.62 128.762 L 319.62 168.694 Z  M 321.602 130.222 L 324.143 134.312 C 323.368 134.727 322.521 135.015 321.602 135.141 L 321.602 130.222 L 321.602 130.222 Z  M 324.9 133.844 L 321.89 128.978 L 326.918 131.717 C 326.395 132.564 325.711 133.285 324.9 133.844 Z " fill="rgb(255,255,255)"/></g></svg>